<svg width="70" height="70" xmlns="http://www.w3.org/2000/svg">
 <defs>
  <clipPath id="clip0_2403_439">
   <rect id="svg_1" fill="white" height="70" width="70"/>
  </clipPath>
 </defs>
 <g>
  <title>background</title>
  <rect fill="none" id="canvas_background" height="402" width="582" y="-1" x="-1"/>
 </g>
 <g>
  <title>Layer 1</title>
  <g id="svg_2" clip-path="url(#clip0_2403_439)">
   <path id="svg_3" fill="#FDC305" d="m59.8825,23.8063c-1.724,-4.0971 -4.5004,-7.6745 -8.0525,-10.3758c-3.5522,-2.7012 -7.756,-4.43193 -12.1926,-5.01962c-4.4366,-0.58769 -8.951,-0.01183 -13.0933,1.67022c-4.1424,1.682 -7.7679,4.4114 -10.5154,7.9162c-2.7475,3.5048 -4.521,7.6626 -5.1437,12.0591c-0.6228,4.3965 -0.073,8.878 1.5945,12.9981c1.6675,4.12 4.3945,7.7347 7.9092,10.4837c3.5147,2.749 7.6943,4.5364 12.1224,5.1841c-0.58,-2.0732 -1.17,-4.3645 -1.69,-6.7948c1.5128,0.9734 3.1051,1.8195 4.7602,2.5295l0,0c0,0 0.12,2.1425 0.28,4.5331c1.7883,0.0306 3.5749,-0.1257 5.3303,-0.4662c-0.0454,-0.2493 -0.0454,-0.5046 0,-0.7539c0.29,-1.8549 1.09,-5.1977 1.25,-7.3502c1.1534,-1.07 2.1318,-2.3116 2.9002,-3.6801l0,0l-0.06,0.4365c-0.5501,4.2256 -1.7001,8.7389 -2.4001,9.9887c-0.2267,0.4137 -0.5056,0.7971 -0.8301,1.1407c3.62,-0.8423 7.012,-2.4554 9.9408,-4.7275c2.9288,-2.2722 5.3244,-5.1489 7.0206,-8.4308c1.6963,-3.282 2.6526,-6.8905 2.8028,-10.5756c0.1501,-3.685 -0.5096,-7.3584 -1.9333,-10.7654l0,0zm-1.4701,3.7594c-0.44,0.4266 -1.35,0.7142 -1.5001,-0.5753c-0.15,-1.2895 -0.19,-2.1921 -0.19,-2.1921c0,0 -1.9301,-3.4024 -2.6501,-3.442c-0.72,-0.0397 -5.8303,3.442 -7.1803,4.9596c-1.1701,1.2796 -1.4001,1.1903 -1.4001,3.442c0,1.6962 0.22,8.1041 0.1,13.0042l-8.1504,2.1525c-2.5618,0.7292 -5.167,1.2991 -7.8004,1.7061l-1.0001,-5.7829l-0.14,0l-2.5701,-13.0638c0,0 -3.8102,-1.4283 -5.2102,-1.8152c-0.6574,-0.2853 -1.3834,-0.378 -2.0922,-0.2673c-0.7088,0.1108 -1.3709,0.4203 -1.908,0.8922c-0.5481,0.476 -0.9862,1.0634 -1.2848,1.7224c-0.2985,0.659 -0.4504,1.3741 -0.4453,2.0966c0.2114,0.461 0.3723,0.9432 0.48,1.4383c0.05,0.4761 -1.2001,0.4265 -2.0001,0.4265c-0.8,0 -0.92,-1.4284 -0.29,-3.1048c0.4915,-1.289 1.1007,-2.5307 1.8201,-3.7098c0.541,-1.0532 1.2389,-2.0196 2.0701,-2.8667c0,0 0.14,-0.3372 1.25,-0.238c1.1101,0.0992 7.2804,0.4265 7.2804,0.4265l0.05,-2.2517c6.7067,-0.9185 13.4708,-1.3627 20.241,-1.3292c0,0.6051 0,1.2102 0,1.8153c2.5644,-1.1608 5.3257,-1.8337 8.1404,-1.9839c0.1506,-0.0038 0.2998,0.0296 0.4342,0.0971c0.1344,0.0675 0.2498,0.1671 0.3358,0.2898c0.3401,0.4265 2.4102,2.9758 2.6502,3.3428c0.6722,0.9529 1.2835,1.9468 1.8301,2.9758c-0.1874,0.6515 -0.4813,1.2681 -0.8701,1.8251l0,0.0099z"/>
   <path id="svg_4" fill="#F06351" d="m56.4628,21.4951c0.4701,0.5952 0.8801,1.1209 1.0001,1.2796c0.6722,0.953 1.2835,1.9468 1.8301,2.9758c-0.1903,0.6301 -0.4806,1.2262 -0.8601,1.7656c-0.44,0.4266 -1.35,0.7142 -1.5,-0.5753c-0.15,-1.2895 -0.21,-2.1425 -0.21,-2.1425c0,0 -1.9301,-3.4024 -2.6502,-3.442c-0.72,-0.0397 -5.8303,3.442 -7.1803,4.9596c-1.1701,1.2796 -1.4001,1.1903 -1.4001,3.442c0,1.4879 0.17,6.5963 0.13,11.1394c1.8101,0.1984 4.4702,0.6943 5.2703,1.8648c0,0 -0.29,-7.1221 7.8104,-3.3924c0,0 0.28,-9.711 11.4605,-7.2212c-3.8007,-4.4262 -8.46,-8.0491 -13.7007,-10.6534l0,0z"/>
   <path id="svg_5" fill="#F06351" d="m45.9323,19.1938c0.0406,-5.4965 -0.428,-10.9851 -1.4001,-16.39656c0,0 -0.15,-1.28951 -0.87,-0.23806c-0.5942,1.25699 -0.9986,2.5939 -1.2001,3.96772c-4.275,-0.27207 -8.5661,-0.15919 -12.8206,0.33726c-0.8201,-2.72781 -2.2201,-3.96773 -2.8902,-3.64039c-0.67,0.32734 -0.75,3.25353 -0.75,3.25353l-0.33,14.0457c6.7133,-0.9194 13.4841,-1.3636 20.261,-1.3292l0,0z"/>
   <path id="svg_6" fill="#E55645" d="m45.3515,46.7397c0.13,-1.0613 0.2,-2.4699 0.24,-4.0272l-8.15,2.1525c-2.5606,0.746 -5.1657,1.3324 -7.8,1.7557l1.11,4.9597c0,0.1091 0,0.2182 0.07,0.3273c1.5127,0.9734 3.105,1.8195 4.76,2.5294c2.4187,-1.1468 4.7223,-2.5185 6.88,-4.0966l0,0.0595c1.1481,-1.0648 2.123,-2.2995 2.89,-3.6603l0,0z"/>
   <path id="svg_7" fill="black" d="m32.0016,16.0891c-0.05,-0.0992 1,0.6745 1.41,0.9126c0.41,0.238 0.61,0.4166 0.61,0.5852c0,0.1687 -0.26,0.3373 -0.62,0.3373c-0.36,0 -0.92,-0.1191 -1,-0.2579c-0.08,-0.1389 0.6,0 0.94,0l0.29,0c-0.6157,-0.4468 -1.1644,-0.9778 -1.63,-1.5772z"/>
   <path id="svg_8" fill="black" d="m39.502,16.1982c0,0 -1,1.2697 -1.09,1.3292c-0.09,0.0595 -0.1701,0.3373 0.1899,0.2877c0.4133,-0.0612 0.8212,-0.1541 1.22,-0.2778c0.11,-0.0595 0.0701,-0.1984 -0.1199,-0.1785c-0.19,0.0198 -0.68,0.0496 -1,0.1091l0.8499,-1.2598c0,0 0.0301,-0.119 -0.0499,-0.0099z"/>
   <path id="svg_9" fill="black" d="m36.3617,22.2589c0.4636,-0.2026 0.8467,-0.5512 1.09,-0.9919c0.28,-0.6547 0,-0.9027 -0.44,-0.992c-0.6053,-0.1095 -1.23,0.0109 -1.75,0.3373c-0.39,0.367 -0.34,0.7241 0,0.9919c0.3378,0.2628 0.7074,0.4827 1.1,0.6547l0,0z"/>
   <path id="svg_10" fill="#F06351" d="m36.0016,23.5087c-0.1148,0.225 -0.2708,0.4268 -0.46,0.5952c-0.2848,0.2273 -0.6349,0.3592 -1,0.3769c-0.5506,0.0536 -1.1011,-0.1024 -1.54,-0.4364c-0.2016,-0.117 -0.381,-0.268 -0.53,-0.4464c-0.1001,-0.108 -0.223,-0.1927 -0.36,-0.248c0,0 0.75,4.0769 2.57,4.7315c1.82,0.6547 2.16,-0.7538 2.21,-1.1308c0.0609,-1.1289 -0.225,-2.2496 -0.82,-3.2138c0,-0.2976 -0.02,-0.0992 -0.07,-0.2282z"/>
   <path id="svg_11" fill="black" d="m34.3015,24.6395c-0.468,-0.0667 -0.9175,-0.2268 -1.3214,-0.4706c-0.4038,-0.2438 -0.7538,-0.5662 -1.0286,-0.9478c-0.0246,-0.0273 -0.0382,-0.0626 -0.0382,-0.0992c0,-0.0366 0.0136,-0.0719 0.0382,-0.0992c0.0131,-0.0132 0.0286,-0.0237 0.0458,-0.0308c0.0172,-0.0072 0.0356,-0.0109 0.0542,-0.0109c0.0187,0 0.0371,0.0037 0.0543,0.0109c0.0171,0.0071 0.0327,0.0176 0.0457,0.0308c0.2475,0.3444 0.5614,0.6366 0.9236,0.8596c0.3623,0.2231 0.7655,0.3726 1.1864,0.4398c0.333,-0.0248 0.6553,-0.1276 0.9404,-0.3001c0.2851,-0.1724 0.5249,-0.4095 0.6996,-0.6918l0.14,-0.1885l0.1,0.2183c0,0 0.38,0.7538 1,0.7935c0.62,0.0397 1.06,-0.4166 1.63,-1.2796c0.0212,-0.0316 0.0542,-0.0535 0.0917,-0.0609c0.0375,-0.0075 0.0765,0.0002 0.1083,0.0212c0.0319,0.0211 0.0539,0.0538 0.0614,0.091c0.0075,0.0372 -0.0002,0.0758 -0.0214,0.1074c-0.6666,0.9721 -1.2966,1.4383 -1.89,1.3986c-0.2293,-0.0301 -0.4489,-0.1108 -0.6427,-0.2361c-0.1938,-0.1253 -0.3569,-0.292 -0.4773,-0.488c-0.1956,0.271 -0.4497,0.4954 -0.7438,0.6567c-0.2941,0.1613 -0.6208,0.2555 -0.9562,0.2757z"/>
   <path id="svg_12" fill="#FDC305" d="m36.2616,37.9909c2.0711,0 3.75,-1.6654 3.75,-3.7197c0,-2.0544 -1.6789,-3.7198 -3.75,-3.7198c-2.0711,0 -3.75,1.6654 -3.75,3.7198c0,2.0543 1.6789,3.7197 3.75,3.7197z"/>
   <path id="svg_13" fill="#111111" d="m41.2316,31.2458l-3.13,1.2994l1.15,-5.5845l-7.5,9.6812l3.13,-1.2994l-1.15,5.5945l7.5,-9.6912zm-7.39,3.7991l4.16,-5.3663l-0.81,3.9677l2,-0.8134l-4.19,5.3763l0.81,-3.9678l-1.97,0.8035z"/>
   <path id="svg_14" fill="#111111" d="m32.4415,33.5868c0.6186,0 1.12,-0.4974 1.12,-1.111c0,-0.6136 -0.5014,-1.111 -1.12,-1.111c-0.6185,0 -1.12,0.4974 -1.12,1.111c0,0.6136 0.5015,1.111 1.12,1.111z"/>
   <path id="svg_15" fill="#111111" d="m38.9619,37.614c0.4363,0 0.79,-0.3509 0.79,-0.7836c0,-0.4328 -0.3537,-0.7837 -0.79,-0.7837c-0.4363,0 -0.79,0.3509 -0.79,0.7837c0,0.4327 0.3537,0.7836 0.79,0.7836z"/>
   <path id="svg_16" fill="#111111" d="m39.9219,35.4615c0.1933,0 0.35,-0.1554 0.35,-0.3472c0,-0.1917 -0.1567,-0.3471 -0.35,-0.3471c-0.1933,0 -0.35,0.1554 -0.35,0.3471c0,0.1918 0.1567,0.3472 0.35,0.3472z"/>
   <path id="svg_17" fill="#F06351" d="m45.8822,20.9892c-1.8052,1.6142 -3.5054,3.3403 -5.0902,5.168c-1.5787,1.8145 -3.3602,3.4451 -5.3103,4.8605c-0.22,-0.5258 -1.6301,-1.5078 -1.6301,-1.5078c0,0 -3.1401,-2.1326 -5.2002,-3.809c-1.1137,-0.92 -2.1628,-1.9142 -3.1402,-2.9758l-2.0001,-0.1091c2.8872,4.1831 7.1169,7.2737 12.0006,8.7687c0.86,-0.1389 3.2802,-1.8549 5.0903,-3.2536c2.1414,-1.8064 4.1469,-3.7657 6.0002,-5.8623c0.4982,-0.5872 0.8845,-1.2594 1.1401,-1.9838c-1.14,0.3769 -1.8601,0.7042 -1.8601,0.7042z"/>
   <path id="svg_18" fill="#FDC305" d="m65.2227,3.47176l-8.46,9.36384l-1.22,-1.974l8.15,-10.8616l1.53,3.47176z"/>
   <path id="svg_19" fill="#FDC305" d="m62.6531,17.1207l5.54,-4.0768l-0.78,-3.70984l-5.4,4.77114l0.64,3.0155z"/>
   <path id="svg_20" fill="#FDC305" d="m59.923,48.9716l6.13,3.1543l3.01,-2.3211l-6.69,-2.7278l-2.45,1.8946z"/>
   <path id="svg_21" fill="#FDC305" d="m1.94995,5.92182l3.07,-3.33288l9.29005,8.92736l-1.22,2.2616l-11.14005,-7.85608z"/>
   <path id="svg_22" fill="#FDC305" d="m7.38003,16.1486l-4.7,-3.1047l-2.4,3.8387l5.15,2.3807l1.95,-3.1147z"/>
   <path id="svg_23" fill="#FDC305" d="m13.91,52.1259l-4.55001,3.323l2.80001,3.5511l4.02,-3.9876l-2.27,-2.8865z"/>
   <path id="svg_24" fill="#F06351" d="m25.9313,27.774c0,0 -3.8102,-1.4283 -5.2103,-1.8152c-0.6574,-0.2853 -1.3833,-0.378 -2.0921,-0.2673c-0.7088,0.1108 -1.3709,0.4203 -1.9081,0.8922c-0.548,0.476 -0.9862,1.0634 -1.2847,1.7224c-0.2986,0.659 -0.4505,1.3741 -0.4454,2.0966c0.2114,0.461 0.3724,0.9432 0.4801,1.4383c0.05,0.4761 -1.2001,0.4265 -2.0001,0.4265c-0.8001,0 -0.9201,-1.4284 -0.29,-3.1048c0.4915,-1.289 1.1007,-2.5307 1.82,-3.7098c-5.45023,2.8171 -15.0007,9.3242 -15.0007,9.3242c2.73182,-0.1634 5.47292,-0.0838 8.1904,0.238c5.2503,0.5258 5.0003,4.6323 5.0003,4.6323c1.8466,-0.5049 3.7285,-0.8729 5.6302,-1.101c2.1201,-0.1389 2.2701,2.1029 2.2701,2.1029l0.5301,3.8288c0.8048,-0.8636 1.6923,-1.6476 2.6501,-2.3409c1.2345,-0.9802 2.8064,-1.443 4.3802,-1.2895l0,0l-2.7201,-13.0737z"/>
  </g>
 </g>
</svg>