<svg xmlns="http://www.w3.org/2000/svg" width="310" height="310" shape-rendering="geometricPrecision" text-rendering="geometricPrecision" image-rendering="optimizeQuality" fill-rule="evenodd" clip-rule="evenodd"><path fill="#dfdddd" d="M153 0h19l2 2-9 3c-3-2-5-2-7 0-10-1-20 1-28 7l-4-3 7-7 20-2z"/><path fill="#beb9bb" d="M158 5a418 418 0 0018 2l2 2c0-1 1-2 3-2 2 2 5 3 9 4 0 2 1 3 3 5l6 3-7-1-8-5c-3-1-5-1-6 1h-3c0-3-2-5-4-5h-14l-7 4c-3-1-7-2-10-1 3-5 7-6 12-4l6-3z"/><path fill="#d0cdcd" d="M174 2c0 1 1 2 3 2l16 3v4l1-1 7 3 2 3c1-1 2-2 3-1l4 6 9 1 23-1 1-3c7 0 14 2 20 7 0 4 2 7 4 11 0 6-2 11-5 15-1-4 0-7 2-10l-2-7c-1-3-3-5-5-5l-2-4-13-1h-21l-2 2a1426 1426 0 01-26-10c-2-2-3-3-3-5-4-1-7-2-9-4-2 0-3 1-3 2l-2-2a418 418 0 01-11-2l9-3z" opacity=".867"/><path fill="#d7d4d4" d="M158 5l-6 3c-5-2-9-1-12 4-4 0-7 1-8 4l-14 4v3l-7-3c-1 2-2 4-4 4l-10-1 6-5h6c3-7 9-10 17-9l4 3c8-6 18-8 28-7z" opacity=".752"/><path fill="#e7e6e6" d="M243 18l-1 3-23 1c3-3 7-5 12-7 4-1 8 0 12 3z" opacity=".525"/><path fill="#b1abae" d="M178 14l-3 2c-2-2-3-3-3-5l-2 6-2-3c-8-1-15 0-22 1-1 1-2 2-1 4 1-1 2 0 3 2-2 0-3 1-2 3l-4-1v3l-2 2-4-2h-10v-4h3v-3l-18 6c4 0 6 3 8 7-2-1-4 0-5 1-1-2-2-3-1-4h-6l-15-4c-2 1-2 3 0 5l-6 1v3l-5-1c1-4 0-7-3-9-1 3-2 6-1 10h-3v-6c-2-1-3 0-4 1 0 2 0 5 2 8h-6c-1-2 0-4 2-5h-5l7-5 2-4 15-3a1885 1885 0 0020 4c2 0 3-2 4-4l7 3v-3l14-4c1-3 4-4 8-4 3-1 7 0 10 1l7-4h14c2 0 4 2 4 5h3z"/><path fill="#a7a1a6" d="M142 26v4h-6l-1-3c-2 3-1 6 2 9-3 1-4 2-4 5-2-2-1-4 1-5h-3v3h-3v3h-4V29h-3l1 4c-4 1-4 4-1 8-4 0-6-1-6-4-1-1-2-2-3-1v-6h-5v-1h6c-1 1 0 2 1 4 1-1 3-2 5-1-2-4-4-7-8-7l18-6v3h-3v4h10l4 2 2-2z"/><path fill="#a49ea1" d="M219 26l2-2h21l10 2c0 3 2 6 7 6l1 4v5c-4 2-4 5-1 8l-6 6-1 3c-3-1-5 0-6 2-3-1-5 0-6 1-1-1 0-2 1-3l10-2-3-5h7c-1-2-2-4-1-5h-3c-1-3 0-4 2-6-2-1-3-3-1-4l-1-1c-4 3-7 2-7-2l-7-2-10 2c-1-2 0-3 1-4l9-1c-5-3-9-4-13-3v5l-20-1-5 6-1-1-6-3c1-2 2-3 4-3-1-1-2-2-3-1l-2-6h6c-1 3 0 5 4 6l1-3h4v4l12-1 1-1z"/><path fill="#aba6aa" d="M178 14c1-2 3-2 6-1l8 5 7 1a1426 1426 0 0019 8l-12 1v-4h-4l-1 3c-4-1-5-3-4-6h-6l2 6c1-1 2 0 3 1-2 0-3 1-4 3-1-2-2-3-1-4-4-1-6 1-7 4-5-1-7 1-6 6l1 2-2 1-3-3c2-2 2-3 1-5l-4 5v-8l11-3c0-3 1-5 4-5l-2-1-7 2c-1-2 0-3 1-4-3-2-4-1-5 1l2 5-9-1-2-3-5 6c-3-4-7-6-11-5-1-2-2-3-3-2-1-2 0-3 1-4 7-1 14-2 22-1l2 3 2-6c0 2 1 3 3 5l3-2z"/><path fill="#e8e7e6" d="M72 23l-2 4h-8l-5 9c-2-1-3 0-4 1l1 14-5-8 2-14 3-6 12-3 6 3z"/><path fill="#9f9a9e" d="M184 31c-2 2-3 5-4 9l-4 1c2 4 1 7-2 11-3-2-5-3-7-2v-4l6-2c-8-1-9-4-4-9v-7l-8 5 4 3-9 7-2-5c-1 0-2 1-1 3h-3c1-3 1-6-1-8-3 1-3 3 0 5l-1 1c-3-2-4-4-5-6l3-6c-2-1-3-2-4-1v-3l4 1c-1-2 0-3 2-3 4-1 8 1 11 5l5-6 2 3 9 1-2-5c1-2 2-3 5-1-1 1-2 2-1 4l7-2 2 1c-3 0-4 2-4 5l-11 3v8l4-5c1 2 1 3-1 5l3 3 2-1-1-2c-1-5 1-7 6-6z"/><path fill="#8b8488" d="M240 61l-3 1 1-6 6-1v-4h3l-1-5-5 2-1-4c-4 0-7-1-10-3-2 1-3 0-1-2-1-1-2-2-3-1 1-2 0-3-2-2-4 0-4 0 0 2h-7c-1 3-2 6-1 10-4-1-6 1-8 4l-6-3c-3 0-4 1-3 4l-6-1v-8l7-1c-1 1 0 2 1 3 2-2 4-3 7-2-1 1 0 2 1 4v-6l4-2c-2-1-3-2-4-1v-3c-5-2-9-1-11 3-4 0-7 1-10 3l-2-1c0-2 1-3 3-4l9-3 1 1 5-6 20 1v-5c4-1 8 0 13 3l-9 1c-1 1-2 2-1 4l10-2 7 2c0 4 3 5 7 2l1 1c-2 1-1 3 1 4-2 2-3 3-2 6h3c-1 1 0 3 1 5h-7l3 5-10 2c-1 1-2 2-1 3z"/><path fill="#9a9498" d="M107 29v1l-12-2v10h-7v4l-5-2v3c-5-2-8 0-9 5l-4 1c-2-10-3-10-4 0l4 10 4 1-1 3c2 0 3 1 5 3s5 2 8 1c-1 2 0 3 3 2l-3 6-2-4c-3 0-4-1-5-3-2-1-3-1-4 1h-3c0-4-2-5-5-4-2-3-2-6-2-8-4 0-6-1-5-5h4v-3h-3c0-4 2-7 5-9-1-1-2-2-3-1v-7h5c-2 1-3 3-2 5h6c-2-3-2-6-2-8 1-1 2-2 4-1v6h3c-1-4 0-7 1-10 3 2 4 5 3 9l5 1v-3l6-1c-2-2-2-4 0-5l15 4z"/><path fill="#979195" d="M142 26c1-1 2 0 4 1l-3 6c1 2 2 4 5 6l1-1c-3-2-3-4 0-5 2 2 2 5 1 8h3c-1-2 0-3 1-3l2 5 9-7-4-3 8-5v7c-5 5-4 8 4 9l-6 2v4c2-1 4 0 7 2 3-4 4-7 2-11l4-1c1-4 2-7 4-9 1-3 3-5 7-4-1 1 0 2 1 4l6 3-9 3c-2 1-3 2-3 4l2 1c3-2 6-3 10-3 2-4 6-5 11-3v3c1-1 2 0 4 1l-4 2v6c-1-2-2-3-1-4-3-1-5 0-7 2-1-1-2-2-1-3l-7 1v8l6 1c-1-3 0-4 3-4l1 6h-5c2 3 2 6-2 9l-3-3-1 1 2 5c-3 0-5 0-6 2l-1-2c1-1 2-3 4-3-2-3-2-5-1-6 1 2 3 1 5-1h-4l-1-3-4 2c0 3-2 4-5 5v9l7 1v4c3 0 4-2 5-5 1-1 3-1 5 1-2-1-4 0-5 1-1 2-1 4 1 7-2-1-3-2-2-3l-5 1-21-6h3v-6h3c-1 3 1 4 4 4l-1-7c-3-1-6 0-8 2l-1-1c1-4 4-6 8-7 0-3-1-4-3-4l-1 3c-3 1-5 2-6 5l-1-12c-2 2-3 2-3-1l-12-4c-2 1-4 0-3-2l1-2-4-3-6-3c0-2 1-3 3-3h3v-4z"/><path fill="#9c969c" d="M139 30c-2 0-3 1-3 3l6 3c-2 0-4 1-5 3l-2 9-7-2c0 1 0 3 2 4l-1 2c-4-1-7-3-7-6h-4l-1 2 2 6c-6-3-11-1-14 4l3 3-8 1v5l-5-2c-2 0-4 1-3 4h-3c1-3 3-5 6-7-3 0-4-1-2-3h9l-3-2c0-6 2-10 5-14h4v-3h3l-2-4 2-5-3-1h4v6c1-1 2 0 3 1 0 3 2 4 6 4-3-4-3-7 1-8l-1-4h3v13h4v-3h3v-3h3c-2 1-3 3-1 5 0-3 1-4 4-5-3-3-4-6-2-9l1 3h3z"/><path fill="#a09ba0" d="M145 41c-1 2 1 3 3 2l12 4c0 3 1 3 3 1l1 12-1 2 3 7h-3c0-4-2-5-4-4 2 3 2 5 1 9-4-1-7 0-10 1 0-5-2-7-6-6-2-2-1-4 2-4 2 3 4 3 5-2l7-4-2-4h4v-3c-2-1-4 0-5 1-4 2-6 5-6 9l-7-2-1 5h-4l-2-6c-5-2-10-3-14-1 3-3 7-4 12-5 3-2 5-5 5-9 0 1 1 2 2 1l1-3 4-1z"/><path fill="#a19b9e" d="M216 48l3 4 1 3h-5v3h-3l-1-4c-2 0-2 1-2 2l2 12-7-2-9 1h-1l-2-5 1-1 3 3c4-3 4-6 2-9h5l-1-6 6 3c2-3 4-5 8-4z"/><path fill="#b9b3b3" d="M242 24l13 1 2 4c2 0 4 2 5 5l2 7c-2 3-3 6-2 10l-1 1-9 6 1-3 6-6c-3-3-3-6 1-8v-5l-1-4c-5 0-7-3-7-6l-10-2z" opacity=".32"/><path fill="#b0aaac" d="M63 32v7c1-1 2 0 3 1-3 2-5 5-5 9h3v3h-4c-1 4 1 5 5 5 0 2 0 5 2 8 3-1 5 0 5 4h-1l-1-3-6-1-4-7-2-18h4c-1-3 0-6 1-8z" opacity=".94"/><path fill="#857e83" d="M107 30h1l3 1-2 5 2 4h-3v3h-4c-3 4-5 8-5 14l3 2h-9c-2 2-1 3 2 3-3 2-5 4-6 7-3 1-4 0-3-2-3 1-6 1-8-1s-3-3-5-3l1-3-4-1-4-10c1-10 2-10 4 0l4-1c1-5 4-7 9-5v-3l5 2v-4h7V28l12 2z"/><path fill="#665f63" d="M104 43c-1-1-2 0-3 1l-3 9c-3-1-5 0-7 1l4 1v3l-10 1-6 5c-1-5 0-9 1-12 2-2 4-2 7 0l4-5 10-8-5-3c1-1 3-2 6-1v-3c4 0 6 3 4 8-1 0-2 1-2 3z"/><path fill="#736d70" d="M226 38c1-1 2 0 3 1-2 2-1 3 1 2 3 2 6 3 10 3l1 4 5-2 1 5h-3v4l-6 1-1 6-4-1a1618 1618 0 00-11-16l1-4 3-3z"/><path fill="#cac6c7" d="M70 27l-7 5c-1 2-2 5-1 8h-4l2 18 4 7 6 1 1 3c-5 0-8-1-11-4l-6-10v-4l-1-14c1-1 2-2 4-1l5-9h8z" opacity=".643"/><path fill="#a19a9a" d="M233 61l4 1 3-1c-2 2-3 5-3 9-3 1-4 3-3 7h3l-2 9c0 2 1 5 3 7-2 2-4 4-4 7h-3c-2-1-3 0-4 1l-2 8c1 3 0 4-3 4l-2 11-2-6 2-9c3 4 4 3 3-1l3-10 5-2c-3-2-6-2-8 0v-2l-12-3c-1 1 0 3 1 4l-2 2v-7c-2 0-3-1-3-2 0-3 0-5 2-6l2-6 1 1 1 11h11l-2-4c-1 0-2 1-1 3l-3-1c1-3 3-4 5-6l-1-1c-2 1-3 2-4 1V67h-3c0-5 2-9 7-11 6 2 6 5 1 9v5c2-5 5-8 10-9z"/><path fill="#8b858a" d="M144 69l3 1-1 3c-5 0-5 2-1 5l-1 2c-6-1-7-4-2-8-2-1-3-2-4-1 0-3 1-5 3-6l1-5 7 2c0-4 2-7 6-9 1-1 3-2 5-1v3h-4l2 4-7 4c-1 5-3 5-5 2-3 0-4 2-2 4z"/><path fill="#999499" d="M141 65c-2 1-3 3-3 6 1-1 2 0 4 1-5 4-4 7 2 8l-7 1-1 4-1-4c-4-3-6-3-9 1-2-2-4-1-4 2l-4 1v-6c-2 2-4 2-5-1l1-3c-3-2-3-4 0-5l1 4h4c-1-4 0-6 3-7l1-1c-2-3-3-6-2-8 4-2 9-1 14 1l2 6h4z"/><path fill="#b3adad" d="M246 60l-5 2-4 11c-1 3 0 4 3 6v1l-3 2-2 4 2-9h-3c-1-4 0-6 3-7 0-4 1-7 3-9 1-1 3-2 6-1z" opacity=".951"/><path fill="#888185" d="M194 67h1l9 1v3c3-1 5 0 5 4l-6-3-1 1c1 2 2 4 1 7l1 1 4-3 1 4c-2 1-2 3-2 6l-9 2c-2-4-2-7 0-10-3-2-3-3 1-3-1-2 0-4 1-5l-2-1c-2-2-4-2-5-1-1 3-2 5-5 5v-4l-7-1v-9c3-1 5-2 5-5l4-2 1 3h4c-2 2-4 3-5 1-1 1-1 3 1 6-2 0-3 2-4 3l1 2c1-2 3-2 6-2z"/><path fill="#ccc8c7" d="M261 52l-7 9v3h-11l2 11h-5v4c-3-2-4-3-3-6l4-11 5-2c1-2 3-3 6-2l9-6z" opacity=".757"/><path fill="#918a8b" d="M226 38l-3 3-1 4 2 8a1618 1618 0 019 8c-5 1-8 4-10 9v-5c5-4 5-7-1-9-5 2-7 6-7 11h3v13c1 1 2 0 4-1l1 1c-2 2-4 3-5 6l3 1c-1-2 0-3 1-3l2 4h-11l-1-11-1-1-2 6-1-4-4 3-1-1c1-3 0-5-1-7l1-1 6 3c0-4-2-5-5-4v-3l-9-1 9-1 7 2-2-12c0-1 0-2 2-2l1 4h3v-3h5l-1-3-3-4c-1-4 0-7 1-10h7c-4-2-4-2 0-2 2-1 3 0 2 2z"/><path fill="#9f9ba0" d="M111 68c-3 2-4 6-4 10-3-3-4-2-2 2l-2 2-3-6c0 3-2 6-4 9l3 3c1-1 2-2 4-1-3 4-1 6 4 6l-3 8c0 3 1 5 3 8 1-3 3-5 6-5v5h3c-1 1 0 2 1 4l1-2c-2-2-2-5 0-7 2-1 4 0 6 1-1 1-2 3-1 5l7-1v-5c1-1 2 0 3 1l-4 7 8 1c0 3 1 3 3 0l1-11c2 0 3 1 5 3-3 4-6 9-7 14l-8-1 1-1c-5-2-8-1-11 2-4-3-8-4-12-4l1-4h-3v4c-4 0-6 2-6 6 1-1 2 0 4 1-3 3-3 6 0 9l-5 11h-3l-1-5-2 7h2l1 4c-2-1-3 0-4 1-2 1-3 2-2 5h-3l-1 6-3-1c1-6 4-11 8-15l2-9a79053 79053 0 006-4v-7c0-4-1-7-3-10l2-5h-3l-1-8c4-2 5-4 5-8h-5v-6c-3-2-6-2-9-2v3h-3c-1-2 0-4 1-5l6-3c-3 0-4-1-2-3 1 0 3 0 4 2l4-3-4-1c3-2 7-3 11-3v-5c2-2 5-2 8-2v3z"/><path fill="#aaa5a9" d="M142 36l4 3-1 2-4 1-1 3c-1 1-2 0-2-1 0 4-2 7-5 9-5 1-9 2-12 5-1 2 0 5 2 8l-1 1-3-1-8 2v-3c-3 0-6 0-8 2v5c-4 0-8 1-11 3l4 1-4 3c-1-2-3-2-4-2-2 2-1 3 2 3l-6 3c-1 1-2 3-1 5h3v-3c3 0 6 0 9 2v6h5c0 4-1 6-5 8l1 8h3l-2 5c2 3 3 6 3 10-1-2-2-4-1-5l-5-2-1-6c1-2 2-4 1-6l-6 3-1-8-3-2-3-16h3c-1-2 0-3 2-4l-8-9h-3c1-2 2-2 4-1 1 2 2 3 5 3l2 4 3-6h3c-1-3 1-4 3-4l5 2v-5l8-1-3-3c3-5 8-7 14-4l-2-6 1-2h4c0 3 3 5 7 6l1-2c-2-1-2-3-2-4l7 2 2-9c1-2 3-3 5-3z"/><path fill="#a7a6ac" d="M122 67c-3 1-4 3-3 7h-4l-1-4c-3 1-3 3 0 5l-1 3c1 3 3 3 5 1v6l4-1c0-3 2-4 4-2 3-4 5-4 9-1-1 5-3 5-5 2l-1 1-3 9 1 1c1-2 3-3 5-2-1-3 0-4 2-2l2 8-7-1c-1 1 0 3 1 4h6v4h-3c-1-1-2-2-3-1v5l-7 1c-1-2 0-4 1-5-2-1-4-2-6-1-2 2-2 5 0 7l-1 2c-1-2-2-3-1-4h-3v-5c-3 0-5 2-6 5-2-3-3-5-3-8l3-8c-5 0-7-2-4-6-2-1-3 0-4 1l-3-3c2-3 4-6 4-9l3 6 2-2c-2-4-1-5 2-2 0-4 1-8 4-10l8-2 3 1z"/><path fill="#989297" d="M144 69c4-1 6 1 6 6 3-1 6-2 10-1l5 11c-2-1-4 0-4 2l-4 13c-1 3 0 3 2 1l4 1c-1 4-4 7-7 10 8 2 8 4-1 6l-7-3v-3l4-1 4-5-1-1h-9c-2-2-3-3-5-3l-1 11c-2 3-3 3-3 0l-8-1 4-7h3v-4h-6c-1-1-2-3-1-4l7 1-2-8c-2-2-3-1-2 2-2-1-4 0-5 2l-1-1 3-9 1-1c2 3 4 3 5-2l1 4 1-4 7-1 1-2c-4-3-4-5 1-5l1-3-3-1z"/><path fill="#e7e6e5" d="M73 81h4c2 5 1 9-3 13h6c-1 1 0 3 2 4l2 2-2 10h3l3 7c3 1 6 3 8 7-2 2-4 2-5 0l-1-3c-3-2-6-5-7-8-1-1-2-2-3-1l-6-13c-2-7-2-13-1-18z" opacity=".852"/><path fill="#8a8388" d="M194 79c0 2-1 4-3 5l1 4h-3v4h-3l-3-11c-2 1-3 2-2 5h-3c-1-2 0-4 1-5-2-2-3-3-5-2-1 3-3 5-6 5-1 1 0 2 2 3-3 6-5 6-4-1-2-1-4 0-5 1 0-2 2-3 4-2l-5-11c1-4 1-6-1-9 2-1 4 0 4 4h3l-3-7 1-2c1-3 3-4 6-5l1-3c2 0 3 1 3 4-4 1-7 3-8 7l1 1c2-2 5-3 8-2l1 7c-3 0-5-1-4-4h-3v6h-3l21 6 5-1c-1 1 0 2 2 3z"/><path fill="#d5d2d1" d="M78 73c0 8 2 16 4 25-2-1-3-3-2-4h-6c4-4 5-8 3-13h-4c-1-2-2-4-1-6l6-2z"/><path fill="#979194" d="M198 71l2 1c-1 1-2 3-1 5-4 0-4 1-1 3-2 3-2 6 0 10l9-2c0 1 1 2 3 2v7l2-2c-1-1-2-3-1-4l12 3c-2 1-3 2-2 5l-9 1v3l-5-3h-8c1-1 3-2 6-1v-4l-9 3-2-2-10-2c-3 1-4 3-3 7h3l-4 2v7h-3c-1-6 0-10 2-15-1-3-2-4-5-3-1 3-2 5-5 6l5-10c-2-1-3-2-4-1-2-1-3-2-2-3 3 0 5-2 6-5 2-1 3 0 5 2-1 1-2 3-1 5h3c-1-3 0-4 2-5l3 11h3v-4h3l-1-4c2-1 3-3 3-5-2-3-2-5-1-7 1-1 3-2 5-1z"/><path fill="#d7d5d4" d="M240 80l2 4c-2 6-3 13-3 20-2 1-3 3-3 5l-4 2-2 5 1-16h3c0-3 2-5 4-7-2-2-3-5-3-7l2-4 3-2z" opacity=".742"/><path fill="#827c80" d="M170 87c1-1 2 0 4 1l-5 10c3-1 4-3 5-6 3-1 4 0 5 3-2 5-3 9-2 15h3v-7l8-2 3 13h3l-1 5c-5-2-8-2-12 0v2c-3-2-5-3-8-2l-1 1c-2 0-4 0-5 2l-10-3-5 1-8 5h-8v3h3l-4 1v-8l4-2c1-5 4-10 7-14h9l1 1-4 5-4 1v3l7 3c9-2 9-4 1-6 3-3 6-6 7-10l-4-1c-2 2-3 2-2-1l4-13c1-1 3-2 5-1-1 7 1 7 4 1z"/><path fill="#878184" d="M199 100c-5 2-4 3 1 4-1 1 0 2 1 4l1-3h3l2 9-2 4c-2 0-3 2-2 4h4v3h-6l-1 2c-4-1-6-3-8-5l-11-1v-2c4-2 7-2 12 0l1-5h-3l-3-13-8 2 4-2h-3c-1-4 0-6 3-7l10 2 2 2 9-3v4c-3-1-5 0-6 1z"/><path fill="#b7b2b4" d="M75 69h3l8 9c-2 1-3 2-2 4h-3l3 16 3 2 1 8 6-3c1 2 0 4-1 6l1 6 5 2c-1 1 0 3 1 5v7a79053 79053 0 01-6 4l-2 9c-4 4-7 9-8 15-2-1-4-2-4-4l1-5c-2-1-3 0-3 1l-5 6c0-5 2-9 7-11 2 0 5 0 8 2 0-2 0-4 2-5l-1-4 3-11c5 2 6 0 5-5l-12-15-1-8-2-2c-2-9-4-17-4-25l-3-4z"/><path fill="#979296" d="M173 119h-5l-3-9c3 3 6 4 10 3v3c2-2 5-3 9-3v-3h3l-2 5-12 4z"/><path fill="#b9b4b3" d="M231 100l-1 16h-6l-3 16c-2-1-2-3-2-4l1-4 2-11c3 0 4-1 3-4l2-8c1-1 2-2 4-1z" opacity=".992"/><path fill="#d8d5d4" d="M230 116l-5 12 4 6c-1 2 0 4 1 7l7 3c-1 2-3 3-5 2-1-2-2-4-4-4l-2-7-4-3h-1l3-16h6z" opacity=".338"/><path fill="#2b2b2c" d="M173 119c3-1 5 0 8 2v2l-3 2-8 1c-1-3 0-5 2-6l1-1z"/><path fill="#9b9495" d="M223 94v2c2-2 5-2 8 0l-5 2-3 10c1 4 0 5-3 1l-2 9 2 6-1 4c0 1 0 3 2 4h1v1c-3 1-6 1-8-1 1-4 0-7-4-7l1-4-7-1 1-2 2-4-2-9h-3l-1 3c-1-2-2-3-1-4-5-1-6-2-1-4h8l5 3v-3l9-1c-1-3 0-4 2-5z"/><path fill="#656163" d="M172 120c-2 1-3 3-2 6l8-1 3-2-1 3h-21l-20 2h-3v-3h8l8-5 5-1 10 3c1-2 3-2 5-2z"/><path fill="#2c2b2c" d="M159 126l-8-1c-1-1-2-2-1-3l10-2-1 6z"/><path fill="#a6a3a4" d="M139 128h46c5 1 10 4 15 7l2 6-2 6-1-10c-3-3-7-5-11-6l-4-2c-20-1-39 0-57 2-3 3-4 8-3 13-2-4-2-8-1-11 1-2 3-4 5-4h7l4-1z"/><path fill="#cbc9cb" d="M188 131l-1 4 1 2c1-2 3-3 5-2l-1 7c-1-1-2-2-1-3-13 0-26 1-39 4-2-2-4-3-7-2-5-1-9 1-12 4l-3-2a319 319 0 01-6 1c-1-5 0-10 3-13a369 369 0 0161 0z"/><path fill="#938d91" d="M139 119l-4 2v8h-7l1-2h-9c0 2-2 4-4 6-1 1-2 3-1 5l-8-2c-2 1-3 3-2 6h-4l-3 5 8-3-1 4-7 2c-2-1-4-2-5-1 1-1 2-2 4-1l-1-4h-2l2-7 1 5h3l5-11c-3-3-3-6 0-9-2-1-3-2-4-1 0-4 2-6 6-6v-4h3l-1 4c4 0 8 1 12 4 3-3 6-4 11-2l-1 1 8 1z"/><path fill="#bebcbd" d="M188 131c4 1 8 3 11 6l1 10c-5 1-10 4-14 7l-2-8c-9-5-17-6-26-3-2 1-3 2-3 4-3 0-4 2-5 4l-6-3c-4 0-7 1-10 3l-6-2v-1l-2 2c-1-2-2-4-1-5l5-2 3 2c3-3 7-5 12-4 3-1 5 0 7 2 13-3 26-4 39-4-1 1 0 2 1 3l1-7c-2-1-4 0-5 2l-1-2 1-4z"/><path fill="#93acc6" d="M184 146c0 3-1 6-3 8v-1c2-6 0-9-5-10-6-1-12 0-17 1-4 3-4 6-2 10-2-2-3-5-2-7 0-2 1-3 3-4 9-3 17-2 26 3z"/><path fill="#585152" d="M212 139l2 3c0 3-1 4-3 5 2 3 2 6 0 9l4 1-2 8-6-10-3-2-5 4v3h-3a976 976 0 0011 15l-3 1-4-2-1-7c-2-1-4-2-5-1v-6a476 476 0 016-13l2-6c-1-1 0-2 1-2l1 3h8v-3z"/><path fill="#797273" d="M181 121l11 1c2 2 4 4 8 5l6 9c4-1 9 0 14 1l2 7h3l2 2c-2 2-2 5 1 8h-4c1 2 2 3 5 4v3c-3 0-6 1-8 3l-1-5c2 1 3 0 3-2-6 0-8-2-5-6-1-3-3-4-4-3l1-10c-2-1-3 0-3 1v3h-8l-1-3c-1 0-2 1-1 2l-2-6c-5-3-10-6-15-7h-46l20-2h21l1-3v-2z"/><path fill="#595357" d="M124 152v2c-8-2-12-6-14-13 5-3 8-1 9 5 1-1 2 0 3 1l2 5z"/><path fill="#96c2e8" d="M181 153c-3 0-6 2-8 4h-9l-7-3c-2-4-2-7 2-10 5-1 11-2 17-1 5 1 7 4 5 10z"/><path fill="#827b81" d="M115 138l-7 1c-1 1 0 3 1 5-2 2-3 3-3 6l2 5c-4-1-8 0-11 2v3c-2-1-3 0-4 1 0 3-1 7-3 10l1 2c-4 2-4 5-1 8-3 5-5 5-6 1-2-1-4-2-5-1 0-4 0-7 2-9l8-3 3-4c-2-1-3 0-4 1-1-2-2-4-1-6l1-6h3c-1-3 0-4 2-5 1-1 3 0 5 1l7-2 1-4-8 3 3-5h4c-1-3 0-5 2-6l8 2z"/><path fill="#adabae" d="M124 144l1 1c-1 1 0 3 1 5l2-2v1l6 2c3-2 6-3 10-3l6 3c1-2 2-4 5-4-1 2 0 5 2 7 6 8 14 9 23 2l1-2c2-2 3-5 3-8l2 8c4-3 9-6 14-7l-2 6c-6 0-11 2-14 6l-13 6c-6 0-11-2-15-6-7-1-13-1-18 1-4-3-8-5-12-5 0-2-1-3-2-3v-8z"/><path fill="#7a9cc3" d="M181 153v1l-1 2c-9 7-17 6-23-2l7 3h9c2-2 5-4 8-4z"/><path fill="#474042" d="M213 165l2 2-2 1c-3-1-6-3-7-5l2 5c3 1 6 3 8 6l-1 1c-2-2-4-2-6-2-1 0-2 0-2 2a976 976 0 01-11-15h3v-3l5-4 3 2 6 10z"/><path fill="#9b9697" d="M198 153l-4 7-5 4c-6-3-10-1-13 3l-10 4v-3l-6 1c-8-3-16-4-23-4l-8-6-3-4c4 0 8 2 12 5 5-2 11-2 18-1 4 4 9 6 15 6l13-6c3-4 8-6 14-6z"/><path fill="#9a9398" d="M84 159l3 1c-1 2 0 4 1 6 1-1 2-2 4-1l-3 4-8 3c-2 2-2 5-2 9-1 2-2 5-1 8h4l-1 3c-2-2-3-2-3 0h-1l-3-1c-1-5 0-9 2-13-2-1-3 0-4 1v-5l-11 2c0-3 1-5 3-6a224 224 0 0014-19c0-1 1-2 3-1l-1 5c0 2 2 3 4 4z"/><path fill="#979091" d="M205 118l-1 2 7 1-1 4c4 0 5 3 4 7 2 2 5 2 8 1-1 1-2 3-1 5l9 9c3 1 5 3 7 6l4 10-1 6c-2 1-3 3-2 6 1-2 3-3 5-2l-1 4-6 2c-2-2-3-3-5-2l-1 6c-2 2-2 4 0 7l-3 8-3-2-1 1-1-2 2-1 4-8-2-2c3-4 4-9 3-13l2-5 5-2-7-6c-3-1-4-2-5-4h4c-3-3-3-6-1-8l-2-2h-3l-2-7c-5-1-10-2-14-1l-6-9 1-2h6v-3h-4c-1-2 0-4 2-4z"/><path fill="#756e73" d="M221 165l1 2c3-2 5-1 6 2-3 3-4 7-2 11-3 2-4 5-4 8l6-2-4 8-2 1 1-2-5-2c-2-1-2-2-2-3 0-2 1-2 3 0 1-3 0-5-1-6l4-3 1-10h-3c-1-2 0-3 1-4z"/><path fill="#868081" d="M189 164c-16 9-32 10-48 4l-4-3c7 0 15 1 23 4l6-1v3l10-4c3-4 7-6 13-3z"/><path fill="#5b545a" d="M99 175l-2 2c-2-1-3-3-2-4l6-8c1-2 3-2 6-1l1 2-9 9z"/><path fill="#bbb6b7" d="M222 132l4 3 2 7c2 0 3 2 4 4 2 1 4 0 5-2 1-1 3 0 4 1l7 19h3c-1 2 0 5 1 8 4 2 6 6 7 10l8 1v8h3l-2 6-2 4c-2-2-4-3-5-2l-1-6h-4v6h-10v-3c-4-1-7 0-8 3h-8l2-6-2-3c-2-3-2-5 0-7l8 5-3 1v3l8-1c-1-3 0-4 2-4h6l4 2c4-3 4-5 0-7l-8 2c-3-3-3-3 1-2 1-3 0-5-3-4l-1-5 4-5c-1-1-2-2-3-1 0-3-2-4-4-4l-4-10c-2-3-4-5-7-6l-9-9c-1-2 0-4 1-5v-1z"/><path fill="#6e676d" d="M128 129c-2 0-4 2-5 4-1 3-1 7 1 11v8l-2-5c-1-1-2-2-3-1-1-6-4-8-9-5 2 7 6 11 14 13l-7 3-3 12h-7l-2 5-6 1 9-9-1-2c-3-1-5-1-6 1l-6 8c-1 1 0 3 2 4-2 1-3 4-3 7h-3c0 6-2 8-8 8l-1-3h-4c-1-3 0-6 1-8 1-1 3 0 5 1 1 4 3 4 6-1-3-3-3-6 1-8l-1-2c2-3 3-7 3-10 1-1 2-2 4-1v-3c3-2 7-3 11-2l-2-5c0-3 1-4 3-6-1-2-2-4-1-5l7-1c-1-2 0-4 1-5 2-2 4-4 4-6h9l-1 2z"/><path fill="#676063" d="M212 139c0-1 1-2 3-1l-1 10c1-1 3 0 4 3-3 4-1 6 5 6 0 2-1 3-3 2l1 5v1c-1 1-2 2-1 4h3l-1 10-4 3c1 1 2 3 1 6-2-2-3-2-3 0h-3c0 3 1 5 3 8h5l-4 2-1 7c-4 0-4-1-1-3-2-3-2-6 0-8h-5l2-7c1-1 2-2 4-1 0-5-2-7-6-7l-6-3 3-1c0-2 1-2 2-2 2 0 4 0 6 2l1-1c-2-3-5-5-8-6l-2-5c1 2 4 4 7 5l2-1-2-2 2-8-4-1c2-3 2-6 0-9 2-1 3-2 3-5l-2-3z"/><path fill="#8a8386" d="M229 158l7 6-5 2-2 5c1 4 0 9-3 13l2 2-6 2c0-3 1-6 4-8-2-4-1-8 2-11-1-3-3-4-6-2l-1-2v-1c2-2 5-3 8-3v-3z"/><path fill="#898288" d="M124 152c1 0 2 1 2 3l3 4c-2-1-3 0-3 1 5 3 7 7 7 14 2-2 3-1 5 1l-1 1 2 4h-4v3h-4l2-7c-2-1-4 0-5 2-2-2-3-3-4-2l2 8h-8l2-8-5-2-3 3h-5l2 6c-2-1-3 0-4 1l-5 2c-3 4-5 9-6 15-3-1-4-2-3-4h-3v-3c-2 0-4 0-5 2l-5-4c0-2 1-2 3 0l1-3 1 3c6 0 8-2 8-8h3c0-3 1-6 3-7l2-2 6-1 2-5h7l3-12 7-3v-2z"/><path fill="#60595b" d="M194 160v6c1-1 3 0 5 1l1 7c-2 0-3 1-4 3 0-3-2-5-3-6l-2 3-2-2-1 2c-2-1-2-2 0-2-2-2-4-2-5 0l2 3c-2 1-3 2-2 4a221 221 0 01-41-3v-3c-3-1-5-2-4-5h3c16 6 32 5 48-4l5-4z"/><path fill="#d3d0d0" d="M251 164l10 10 6 9-8-1c-1-4-3-8-7-10-1-3-2-6-1-8z" opacity=".3"/><path fill="#7b7478" d="M129 159l8 6 4 3h-3c-1 3 1 4 4 5v3l20 2 21 1c-1-2 0-3 2-4l-2-3c1-2 3-2 5 0-2 0-2 1 0 2l1-2 2 2 2-3c1 1 3 3 3 6 1-2 2-3 4-3l4 2 6 3-7 19-2-1c-1-3-2-6-1-8l4-1c-1-3-2-4-4-3l-1 3c0-4-1-7-4-9-3 0-3 1-1 3l-2 1-4-1-6 17-9-2c-3 2-6 3-10 3v3c-5 1-7-1-6-6 3-1 7 0 10 1 1-4 2-7 4-9 4 0 7-1 10-3l-2-6-10 5c-4-2-8-2-11 0h-1l-1-3-5 2v-5c-3-1-5 0-6 2-2-1-3-2-4-1 0 3-1 4-4 4l-2-1v-3h4l-2-4 1-1c-2-2-3-3-5-1 0-7-2-11-7-14 0-1 1-2 3-1z"/><path fill="#474141" d="M171 172h6c-8 4-16 5-23 2l17-2z"/><path fill="#cac6c6" d="M84 100l1 8 12 15c1 5 0 7-5 5l-3 11 1 4c-2 1-2 3-2 5-3-2-6-2-8-2-5 2-7 6-7 11l-9 13c-6-1-9 1-10 6l-5 1-2 3 5 1-1 3c-5 4-9 9-11 15l-6 4 4-17c0-5 1-9 4-12 7-3 12-7 16-13 6-3 10-8 14-14 2-3 5-5 8-6l1-3 3-1c0-2 1-4 3-4 0-4 2-7 4-9 1 2 3 2 5 0-2-4-5-6-8-7l-3-7h-3l2-10z" opacity=".916"/><path fill="#a9a3a6" d="M241 163c2 0 4 1 4 4 1-1 2 0 3 1l-4 5 1 5c3-1 4 1 3 4-4-1-4-1-1 2l8-2c4 2 4 4 0 7l-4-2h-6c-2 0-3 1-2 4l-8 1v-3l3-1-8-5 1-6c2-1 3 0 5 2l6-2 1-4c-2-1-4 0-5 2-1-3 0-5 2-6l1-6z"/><path fill="#9c969b" d="M135 183l2 1c-2 4-2 8 0 13-3 0-5 0-7 2-2-2-1-3 1-4l1-6c-3-2-6-2-9-1l-4 14c0 1 0 2 2 3l-3 2-9-4c-2 0-3 1-4 3-1-1-2-2-3-1l2-6 1-1-4-6c1-6 4-7 9-3 0-4-2-6-5-5 1-1 2-2 4-1l-2-6h5l3-3 5 2-2 8h8l-2-8c1-1 2 0 4 2 1-2 3-3 5-2l-2 7h4z"/><path fill="#534d50" d="M216 188c0 1 0 2 2 3l5 2-1 2-1 1h-5c-2-3-3-5-3-8h3z"/><path fill="#918a8f" d="M199 188c-2 0-4 2-5 3l-7 1v3l-2 5 1 5c-3-1-6-2-7-5h-4v4h-5l1 5c-3 1-4 4-3 7-6 0-7-3-5-7l1 3h3l-2-4c-3-2-5-2-7-1l-1 6-3-3-1 1c1 3 3 5 7 6l-6 3v-3l-8-2h3c-1-2 0-3 1-4l5-5c-3-3-5-3-4 1-2-1-3 0-4 2l-2-5c0-2 1-2 2 0l1-5h5c-1-4 0-7 2-10l5-1c-2-1-2-2-2-3 3-2 7-2 11 0l10-5 2 6c-3 2-6 3-10 3-2 2-3 5-4 9-3-1-7-2-10-1-1 5 1 7 6 6v-3c4 0 7-1 10-3l9 2 6-17 4 1 2-1c-2-2-2-3 1-3 3 2 4 5 4 9z"/><path fill="#dbd8d8" d="M38 186a204 204 0 01-8 32l-4-10c1-6 3-13 6-18 1-3 3-4 6-4z" opacity=".783"/><path fill="#8d868b" d="M157 185c-3 0-5 2-6 5-2-2-4-3-5-2-2 4-3 9-2 15l-6-3h-7v3h-3l-7 6 2 2h8c-2 0-3 1-4 3l-6 1-3-3-9 3c-1 2 0 5 3 6-2 1-2 2 0 4l-3-1c-1-4-2-6-4-7 1-5-1-7-5-5l-1-11 3-2h2l-2 6c1-1 2 0 3 1 1-2 2-3 4-3l9 4 3-2c-2-1-2-2-2-3l4-14c3-1 6-1 9 1l-1 6c-2 1-3 2-1 4 2-2 4-2 7-2-2-5-2-9 0-13 3 0 4-1 4-4 1-1 2 0 4 1 1-2 3-3 6-2v5l5-2 1 3z"/><path fill="#dcdbdb" d="M267 186l7 9 1 7c4 1 6 4 6 9-6 1-8-1-8-6-1-2-3-3-4-2l-1-6 2-6h-3v-5z" opacity=".617"/><path fill="#a7a2a6" d="M64 170c-2 1-3 3-3 6l11-2v5c1-1 2-2 4-1-2 4-3 8-2 13l-4-2c-4 1-7 4-10 8l-5-1c-3 0-6 1-8 3l-1 7-5 5-3 1 2-13c2-6 6-11 11-15l1-3-5-1 2-3 5-1c1-5 4-7 10-6z"/><path fill="#989297" d="M157 185h1c0 1 0 2 2 3l-5 1c-2 3-3 6-2 10h-5l-1 5c-1-2-2-2-2 0l2 5c1-2 2-3 4-2-1-4 1-4 4-1l-5 5c-1 1-2 2-1 4h-3c-2 0-3 1-2 3h3c-1 2-2 5-1 8-5 1-7-1-7-5-5-1-5 0-2 3 0 2-1 3-3 2-2-5-2-9 2-12-2-2-3-3-5-3h-8l-2-2 7-6h3v-3h7l6 3c-1-6 0-11 2-15 1-1 3 0 5 2 1-3 3-5 6-5z"/><path fill="#afaaad" d="M256 199l4 1 6 6c2 4 2 9 1 14l1 2c2-1 4 0 6 3l-2 25-2-9c-2 0-3 1-3 3l-1-2c3-3 3-6 1-9 2-3 2-5 0-8l1-1-3-2c1-3 2-6 1-9-2 2-3 5-3 8h-4v-1l3-6c-3-4-4-3-3 2l-7-4h-5l6-9 3-2c-3-2-5-2-7-1l-5 8v3l-5 4c-2-3-4-4-6-3 4 2 3 3-1 3-1-3-2-5-4-6h9c-1-2 0-4 1-5l2 1c1-2 3-2 5-2v-6l-7 2c1-3 4-4 8-3v3h10z"/><path fill="#cbc8c9" d="M268 197l1 6c1-1 3 0 4 2 0 5 2 7 8 6l1 3c-4-1-5 1-5 5l-2 1 1-3-5-7v-6c-2 0-4 0-5 2l-6-6-4-1v-6h4l1 6c1-1 3 0 5 2l2-4z"/><path fill="#817e82" d="M222 195l1 2-5 3c2 3 1 5-2 7h-4l-12 15 2 5-1 2c-3-4-5-9-6-13-2-1-3-2-4-1 0-2 0-4 2-5-1-3-2-6-1-9l19 2v3l5-1 1-7 4-2 1-1z"/><path fill="#a19b9f" d="M105 184c3-1 5 1 5 5-5-4-8-3-9 3l4 6-1 1h-2c-2-1-3-2-4-1v9c-2-2-4-3-5-2l-1 4c-4 0-7 2-9 5l3 1v6c2-2 4-2 5 1l6-3 7 1c-2-2-2-3 1-3 2 1 3 3 4 7l3 1v2l-7-2c-4 4-7 3-9-1h-4c-2 6-3 6-3 0l-6-1c-2-3-5-4-7-2h-2l-3-4c-7 0-14 1-20 3l1-3 2 1 8-4 1-5 5 3-3 2c4 1 6-1 7-5l-3-2 2-2 9-1 2-4h5v3l4-1-1-1c-2-3-5-4-7-5 1-2 3-2 5-2v3h3c-1 2 0 3 3 4 1-6 3-11 6-15l5-2z"/><path fill="#989195" d="M102 199l-3 2 1 11c4-2 6 0 5 5-3 0-3 1-1 3l-7-1-6 3c-1-3-3-3-5-1v-6l-3-1c2-3 5-5 9-5l1-4c1-1 3 0 5 2v-9c1-1 2 0 4 1z"/><path fill="#847e83" d="M187 195l1 1c1 5 0 10-4 14l4 1c-2 4-4 5-7 1-2-1-4-2-5-1l-1-5c-2 3-1 6 3 8l-2 2 5 1a3014 3014 0 01-5 12c-2-1-3 0-3 2-2 1-4 2-6 1l4-3c-1-1-2-2-3-1 0-6-3-8-7-5l-3-2c-2 3-3 7-3 12-2 0-2 1-2 2h-3c0 2-1 5-3 6l3 2-4 3-4-3 1-7c0-4-2-6-5-6l-3 6c-2-1-2-2 0-3l-5-2 2-12h-4c0 2-1 5-3 7-1-3-2-5-4-6v-5l6-1c1-2 2-3 4-3s3 1 5 3c-4 3-4 7-2 12 2 1 3 0 3-2-3-3-3-4 2-3 0 4 2 6 7 5-1-3 0-6 1-8h-3c-1-2 0-3 2-3l8 2v3l6-3c-4-1-6-3-7-6l1-1 3 3 1-6c2-1 4-1 7 1l2 4h-3l-1-3c-2 4-1 7 5 7-1-3 0-6 3-7l-1-5h5v-4h4c1 3 4 4 7 5l-1-5 2-5z"/><path fill="#a09da1" d="M230 190l2 3-2 6h8l7-2v6c-2 0-4 0-5 2l-2-1c-1 1-2 3-1 5h-9c2 1 3 3 4 6 4 0 5-1 1-3 2-1 4 0 6 3l5-4v-3l5-8c2-1 4-1 7 1l-3 2-6 9h5l7 4c-1-5 0-6 3-2l-3 6-4 1c-4-3-6-3-7 2-1-5-3-8-7-7l-1 3c-4 1-7 4-10 8l-4-3c0-1 1-2 3-1v-3c-3-1-5 0-6 2l-5-2 5-5 1 3c1-2 3-2 6-2l-1-4c-6-1-11 0-16 2v-4h3v-3c3-2 4-4 2-7l5-3 1-1 3 2 3-8z"/><path fill="#e6e6e5" d="M282 214l1 1c1 3 0 7-1 11l-8-3c-1-2 0-3 1-3l2-1c0-4 1-6 5-5z" opacity=".436"/><path fill="#c5c1c3" d="M74 191l3 1v7h-3l-2-4-2 5-17 5c-2 1-3 3-3 6l-3 1c-3 3-4 7-3 12l-3 5v10c-2 3-3 7-3 11l3 20c1-1 2-2 4-1l-1-6c1-1 2 0 3 2l2 2c-2 1-3 2-2 4l-4 2c-1 3 1 5 4 7l1 9h4c1 2 2 2 4 0 1 2 0 4-3 5l-1 5h-1c0-4-1-6-4-7v-11c-3-1-5-2-6-4l-2-3-4-18 2-14-2-9 1-10h-3c-3-1-4-3-3-5-1-6 1-11 4-15l6-4-2 13 3-1 5-5 1-7c2-2 5-3 8-3l5 1c3-4 6-7 10-8l4 2z"/><path fill="#756f72" d="M210 179c4 0 6 2 6 7-2-1-3 0-4 1l-2 7h5c-2 2-2 5 0 8-3 2-3 3 1 3l-5 1v-3l-19-2c-1 3 0 6 1 9-2 1-2 3-2 5 1-1 2 0 4 1 1 4 3 9 6 13l-5-1-1-5h-7c0 4-1 9-3 13h-3v-5l-6-2 2-2 3-10-5-1 2-2c-4-2-5-5-3-8l1 5c1-1 3 0 5 1 3 4 5 3 7-1l-4-1c4-4 5-9 4-14l-1-1v-3l7-1c1-1 3-3 5-3l1-3c2-1 3 0 4 3l-4 1c-1 2 0 5 1 8l2 1 7-19z"/><path fill="#adaab0" d="M77 192h1l5 4c2 1 5 2 7 5l1 1-4 1v-3h-5l-2 4-9 1-2 2 3 2c-1 4-3 6-7 5l3-2-5-3-1 5-8 4-2-1-1 3c6-2 13-3 20-3l3 4c-2 0-2 1 0 2l-4 3c-10-6-14-4-12 8 3-1 6 1 7 5l1-1c1 3 3 3 6 1l2 5 7-7c-2-3-1-5 3-5 0 2 0 4 2 6l-4 6v4l-4 2-3 6 3 7 1-3 9-2c-2 2-3 5-4 9l-1-1c-2 0-4 2-5 4l2 8 4 2c-1 1-2 3-1 6 2-1 3 0 5 2-7 1-11-2-10-9h-4v6c-2-1-4 0-5 1l-1 5c2-2 5-3 8-3l6 2-1 5-1-1c-1-2-2-3-4-3-3 1-6 2-8 5-4-2-6-5-5-8h-4l-1 8-6 3 1-5c3-1 4-3 3-5-2 2-3 2-4 0h-4l-1-9c-3-2-5-4-4-7l4-2c2 0 4 2 5 5 1-3 3-3 5-1 1-3 3-4 6-3l-2 7c0 2 1 3 4 3v3c2-2 3-3 6-3l-5-5-1-10c1-4 0-5-3-2l-3-13c-1-4-3-5-6-4v-6l6 1-5-12v-7l-4 2v-3l-6 1c-1-5 0-9 3-12l3-1c0-3 1-5 3-6l17-5 2-5 2 4h3v-7z"/><path fill="#b3b2b9" d="M47 271c-1-2 0-3 2-4l-2-2 3-1c-2-3-4-5-6-5v-3c0-2 1-2 2-1l3 4 2-3-4-4v-8c-1-7 0-13 3-18l4-2v7l5 12-6-1v6c3-1 5 0 6 4l3 13c3-3 4-2 3 2l1 10 5 5c-3 0-4 1-6 3v-3c-3 0-4-1-4-3l2-7c-3-1-5 0-6 3-2-2-4-2-5 1-1-3-3-5-5-5z"/><path fill="#a6a7ae" d="M255 221l6 9c-3 0-5 1-6 3 1 3 1 5-1 7l1-5h-7v-4c-4 0-6 1-7 5-1-3-2-5-1-7-2-1-4 0-5 1l-1 11c0 1 1 2 3 2-2 1-2 2 0 3v1h-3l-1 4c-3-3-6-3-8 0 2 2 1 4-2 4l1 10-2 3-1-2h-4c-3-7-2-13 1-18 0-8 2-14 6-20l-1-2 3-2 4 3c3-4 6-7 10-8l1-3c4-1 6 2 7 7 1-5 3-5 7-2z"/><path fill="#a4a4aa" d="M259 220v1l3 7-3 7 5 5c-2 4-3 8-3 13-3-1-4 0-4 2 3 4 3 9-1 13-5 0-7 3-7 8-4 3-8 6-13 7l-1-3-3 1c-7-1-11-5-12-11 0-2 0-2 2-2-2 1-2 2 1 4 2 0 5 1 7 4 1-1 2-2 4-1v-4h6l5 2 4-2 2-4 3-2c-2-2-2-4 0-6-2-3-2-7 0-10v-9c2-2 2-4 1-7 1-2 3-3 6-3l-6-9 4-1z"/><path fill="#6d666b" d="M168 228c-3 3-4 3-2-2-1-2-2-2-3 0s-2 5-1 9c-4-1-6 0-5 4l-6-1a186 186 0 004-5c0-5 1-9 3-12l3 2c4-3 7-1 7 5z"/><path fill="#a3a1a9" d="M74 221h2l10 9 3 1c-1 1 0 3 1 5 1-2 3-3 5-2-1 1 0 2 1 3-1 2 0 4 1 7l-8 2v3h5c-1 2 0 4 1 7l-1 8c-2-2-3-1-3 1-1 1-2 3-1 6 1-1 2 0 4 1-3 5-5 10-6 16-2-2-3-3-5-2-1-3 0-5 1-6l-4-2-2-8c1-2 3-4 5-4l1 1c1-4 2-7 4-9l-9 2-1 3-3-7 3-6 4-2v-4l4-6c-2-2-2-4-2-6-4 0-5 2-3 5l-7 7-2-5c-3 2-5 2-6-1l-1 1c-1-4-4-6-7-5-2-12 2-14 12-8l4-3c-2-1-2-2 0-2z"/><path fill="#c2c3c7" d="M254 240v5l-11-2v-3h-4c-1-6-1-6-3 0l-2 1 1-11c1-1 3-2 5-1-1 2 0 4 1 7 1-4 3-5 7-5v4h7l-1 5z"/><path fill="#eae9e9" d="M283 227l2 3-2 12-1 1c-5-1-7-4-6-8h3l1-8h3z" opacity=".405"/><path fill="#888186" d="M76 221c2-2 5-1 7 2l6 1c0 6 1 6 3 0h4c2 4 5 5 9 1a6124 6124 0 002 3l-4 7c-1 4 0 4 3 2l8 3-1 1-2-1c-4 0-7 1-10 3v3h-3l-2-9c-1-1-2-2-1-3-2-1-4 0-5 2-1-2-2-4-1-5l-3-1-10-9z"/><path fill="#c5c1c2" d="M275 220c-1 0-2 1-1 3a309 309 0 019 4h-3l-1 8h-3c-1 4 1 7 6 8l-2 8c-2-2-2-4-2-6h-3c-2 3-2 6 0 10l-4 18 3 11c0 3-2 7-4 10l-6 2 6-21-2-3c2-3 2-6 0-8v-3h3l1-11 2-25c-2-3-4-4-6-3l-1-2c1-5 1-10-1-14 1-2 3-2 5-2v6l5 7-1 3z"/><path fill="#a5a0a5" d="M50 226c-3 5-4 11-3 18v8l4 4-2 3-3-4c-1-1-2-1-2 1v3c2 0 4 2 6 5l-3 1c-1-2-2-3-3-2l1 6c-2-1-3 0-4 1l-3-20c0-4 1-8 3-11v-10l3-5 6-1v3z"/><path fill="#969397" d="M272 250l-1 11h-3v3c0 3 0 6-2 10l-2-2-6 10c-3 1-4 0-6-1l-10 6-12-1c-1-3 0-4 2-5l3-1 1 3c5-1 9-4 13-7 0-5 2-8 7-8 4-4 4-9 1-13 0-2 1-3 4-2 0-5 1-9 3-13l-5-5 3-7-3-7h4c0-3 1-6 3-8 1 3 0 6-1 9l3 2-1 1c2 3 2 5 0 8 2 3 2 6-1 9l1 2c0-2 1-3 3-3l2 9z"/><path fill="#766f74" d="M168 228c1-1 2 0 3 1l-4 3c2 1 4 0 6-1l-4 6c0 2 1 3 4 3 1-8 2-8 3 0h3c0-6 1-6 3 0 2-2 4-2 7 0-2 1-3 3-3 6l-3-3c-1 1-2 3-1 5l-5-3h-2c-2 4-4 7-8 9v4h-4v-7c-4-1-6 1-7 4-1 0-1 1 1 2l3-2 1 1-8 5c3 4 1 6-4 6-2-4-2-8-2-11h3v-4h3v-3l-6-1c-2 0-3 1-3 2-2-2-3-3-4-2-2-1-3-2-2-3h-3c0-6 2-9 8-9l-1 7 4 3 4-3-3-2c2-1 3-4 3-6h3c-1 0-2 1-2 3l6 1c-1-4 1-5 5-4-1-4 0-7 1-9s2-2 3 0c-2 5-1 5 2 2z"/><path fill="#acacb3" d="M254 241v8c-2 3-2 7 0 10-2 2-2 4 0 6l-3 2c0-3-1-4-3-2-1-3-3-3-5-1l-6-2c2-6 1-6-3-2v3h-3l-2-6c-1 2-1 5 1 9l-1 1c-1-3-2-3-3-1l3 6 6-7 2 4c4-1 8 0 12 2l-4 2-5-2h-6v4c-2-1-3 0-4 1-2-3-5-4-7-4-3-2-3-3-1-4l2-3-1-10c3 0 4-2 2-4 2-3 5-3 8 0l1-4h3v7l3-3 2 5c2 1 4 0 6-3-1-4-4-5-7-4v-4c-2-1-3 0-4 1-2-1-2-2 0-3-2 0-3-1-3-2l2-1c2-6 2-6 3 0h4v3l11 2v-4z"/><path fill="#8e888e" d="M216 207v3h-3v4c5-2 10-3 16-2l1 4c-3 0-5 0-6 2l-1-3-5 5 5 2c1-2 3-3 6-2v3c-2-1-3 0-3 1l-11-1v3h-3v-6l4-1-7-3-3 1c-1 3-3 7-3 11-3 3-4 6-5 9l2 4c-3 2-5 5-4 10h-4l2 12-2 6c-2-2-3-1-3 1v11l-5 4h-8v-2h10l1-26c2-5 4-9 7-12l-1-9c0-3 1-6 3-8l5 1 1-2-2-5 12-15h4z"/><path fill="#c2c3c8" d="M237 247v-1c1-1 2-2 4-1v4c3-1 6 0 7 4-2 3-4 4-6 3l-2-5-3 3v-7z"/><path fill="#918b90" d="M96 237l2 9h3v-3c3-2 6-3 10-3l2 1v7c-3-1-5 0-7 2-3-2-6-2-8 0 6 2 6 4 0 5l-1 7 6-1v-3c3-1 7 0 11 1l1-4v6l-4 8 1 3c-3 1-6 3-8 6l-1-2 1-4c-2 1-3 3-3 5-1-3-3-4-5-4l1-2 4 2v-5l9-4c-3-2-5-1-6 1l-2-3-6 1-1-7c-1-3-2-5-1-7h-5v-3l8-2c-1-3-2-5-1-7z"/><path fill="#857e82" d="M113 248l-4 1 6 5 2-1 1 15-3 2 6 1c-1 1 0 3 1 5 2 0 3 2 3 4l-3 7c-1-1-3-2-4-1-1 3 0 6 4 7l-6 3v-5l-8 1-2 8-5 1-1-2 7-6c-1-3-2-6-1-8l11-2 1-11c-1 2-3 2-5 1l-1-1-1-3 4-8v-6l-1 4c-4-1-8-2-11-1v3l-6 1 1-7c6-1 6-3 0-5 2-2 5-2 8 0 2-2 4-3 7-2z"/><path fill="#686166" d="M196 228c-2 2-3 5-3 8l1 9c-3 3-5 7-7 12l-1 26h-9c2-1 5-2 8-1 0-6-1-10-3-14l2-6c-4 1-7 2-9 4 0 3 1 5 5 5l-1 4-8 7 5 1v2l-14-1c0-2 2-3 4-2v-3h-4l-2-5c1-1 2-2 4-1v-3h-4c0-5-2-6-4-2-5 1-9 1-13-1-1-3-3-4-5-3l4-14-2-1v-1c1-1 2 0 4 2 0-1 1-2 3-2l6 1v3h-3v4h-3c0 3 0 7 2 11 5 0 7-2 4-6l8-5-1-1-3 2c-2-1-2-2-1-2 1-3 3-5 7-4v7h4v-4c4-2 6-5 8-9h2l5 3c-1-2 0-4 1-5l3 3c0-3 1-5 3-6-3-2-5-2-7 0-2-6-3-6-3 0h-3c-1-8-2-8-3 0-3 0-4-1-4-3l4-6c0-2 1-3 3-2l6 2v5h3c2-4 3-9 3-13h7l1 5z"/><path fill="#989297" d="M226 224l-3 2 1 2c-4 6-6 12-6 20-3 5-4 11-1 18 0 1 0 2 2 2h-8l-6 5-5-1v-4c4-1 8-3 11-7-2-2-2-4 1-5-2-2-4-3-5-2l-1 7-12 2-2-12h4c-1-5 1-8 4-10l-2-4c1-3 2-6 5-9 0-4 2-8 3-11l3-1 7 3-4 1v6h3v-3l11 1z"/><path fill="#524c4f" d="M122 244c3-1 6 0 9 3l9 2 2 1-4 14c2-1 4 0 5 3-5 0-7-3-6-7l-8-3c0-5-1-9-4-12h-4v7h3c-1 2 0 5 1 8 2 0 3 1 3 4-2-1-3 0-3 1 3 1 4 4 4 8l-2-5c-2 1-3 1-3-2-1-4-2-8-1-11h-4c0-4-1-7-4-9v-3l7 1z"/><path fill="#bec0c4" d="M251 267l-2 4c-4-2-8-3-12-2l-2-4-6 7-3-6c1-2 2-2 3 1l1-1c-2-4-2-7-1-9l2 6h3v-3c4-4 5-4 3 2l6 2c2-2 4-2 5 1 2-2 3-1 3 2z"/><path fill="#a29da2" d="M217 266h4l1 2c-2 0-2 0-2 2 1 6 5 10 12 11-2 1-3 2-2 5l12 1-6 2 2 2c-2 1-3 3-3 6l-4 1-2-6h-3v-3h-3l-3-8c-2 2-4 1-3-2l4-1c-1-3-2-5-5-6s-3 0 0 2l1 4-8-4-1 9 3 4-5 2c-1 1 0 2 2 4-2 1-3 2-2 4-5 0-7-2-7-6l-2 2 3 6-3-1-2-6c-3-2-4-5-4-7h-7l5-4v-11c0-2 1-3 3-1l2-6 12-2 1-7c1-1 3 0 5 2-3 1-3 3-1 5-3 4-7 6-11 7v4l5 1 6-5h8c-2 0-2-1-2-2z"/><path fill="#706a6d" d="M121 215v5c2 1 3 3 4 6 2-2 3-5 3-7h4l-2 12 5 2c-2 1-2 2 0 3l3-6c3 0 5 2 5 6-6 0-8 3-8 9h3c-1 1 0 2 2 3v1l-9-2 3-8h-6c-1-3 0-5 3-5-1-1-2-2-3-1l1-6c-4-1-5 1-5 4h-15c1 4 4 5 9 4 0 2 1 3 3 5 1 0 2 2 1 4l-7-1v3c3 2 4 5 4 9h4c-1 3 0 7 1 11 0 3 1 3 3 2l2 5c2 0 3 1 3 4l-6-2c0 3 1 5 3 8-1 1-2 3-1 6-3 0-5 2-6 4-4-1-5-4-4-7 1-1 3 0 4 1l3-7c0-2-1-4-3-4-1-2-2-4-1-5l-6-1 3-2-1-15-2 1-6-5 4-1v-7l1-1-8-3c-3 2-4 2-3-2l4-7 5-1v-2c-2-2-2-3 0-4-3-1-4-4-3-6l9-3 3 3z"/><path fill="#5f585c" d="M131 247c-3-3-6-4-9-3 1-2 0-4-1-4 6-1 7-3 3-6l-5-3h5c0-3 1-5 5-4l-1 6c1-1 2 0 3 1-3 0-4 2-3 5h6l-3 8z"/><path fill="#4e484a" d="M119 231l5 3c4 3 3 5-3 6-2-2-3-3-3-5-5 1-8 0-9-4h10z"/><path fill="#dddbdb" d="M33 223h3l-1 10 2 9-2 14 4 18 2 3c1 2 3 3 6 4v11c3 1 4 3 4 7v1l-7-3-1-5-7-5c0-3-1-6-3-8l-2-16 2-2-3-10 4-17-4-2c-2-4-1-7 3-9z" opacity=".908"/><path fill="#d3d1d1" d="M280 251l-3 3c3 4 3 8 2 13l-4 6c1 3 2 6 1 10l-2 1-3-11 4-18c-2-4-2-7 0-10h3c0 2 0 4 2 6z" opacity=".79"/><path fill="#4e494c" d="M162 284h-2l-7-3-9 3-7-1-1-1c4-1 9-2 15-1-1-2 0-3 1-4-4-1-7 0-9 2v-12c4 2 8 2 13 1 2-4 4-3 4 2h4v3c-2-1-3 0-4 1l2 5h4v3c-2-1-4 0-4 2z" opacity=".985"/><path fill="#4e494d" d="M177 283h-1l-5-1 8-7 1-4c-4 0-5-2-5-5 2-2 5-3 9-4l-2 6c2 4 3 8 3 14-3-1-6 0-8 1z"/><path fill="#423d3f" d="M143 267v12c2-2 5-3 9-2-1 1-2 2-1 4-6-1-11 0-15 1l-8 7c-1-3 0-5 1-6-2-3-3-5-3-8l6 2c0-3-1-4-3-4 0-4-1-7-4-8 0-1 1-2 3-1 0-3-1-4-3-4-1-3-2-6-1-8h-3v-7h4c3 3 4 7 4 12l8 3c-1 4 1 7 6 7z" opacity=".782"/><path fill="#706b6c" d="M160 284h-16l9-3 7 3z" opacity=".063"/><path fill="#9a949a" d="M95 256l1 7 6-1 2 3c1-2 3-3 6-1l-9 4v5l-4-2-1 2c2 0 4 1 5 4 0-2 1-4 3-5l-1 4 1 2c2-3 5-5 8-6l1 1v7h-3l-6 5 1 7h-3v-3c-4-1-7 0-9 2l3 1v6l-6 1v-4h-3c-1 1 0 2 1 4l-3 1c-1-2 0-4 1-6-2 0-3 0-4 2l-1-1 1-5-6-2c-3 0-6 1-8 3l1-5c1-1 3-2 5-1v-6h4c-1 7 3 10 10 9 1-6 3-11 6-16-2-1-3-2-4-1-1-3 0-5 1-6 0-2 1-3 3-1l1-8z"/><path fill="#958f94" d="M238 291l1 2h7v-4l9 1-3 12c-3 0-5 1-7 3l-19 2-2 2-15-1c1-2 0-3-2-3-1-2-2-3-1-4l-6-2-3-6 2-2c0 4 2 6 7 6-1-2 0-3 2-4-2-2-3-3-2-4l5-2-3-4 1-9 8 4-1-4c-3-2-3-3 0-2s4 3 5 6l-4 1c-1 3 1 4 3 2l3 8h3v3h3l2 6 4-1c0-3 1-5 3-6z"/><path fill="#ada8ab" d="M268 264c2 2 2 5 0 8l2 3a1995 1995 0 00-8 27l-4 2-13 1c2-2 4-3 7-3l3-12-9-1v4h-7l-1-2-2-2 6-2 10-6c2 1 3 2 6 1l6-10 2 2c2-4 2-7 2-10z"/><path fill="#8d878d" d="M100 299l-16 3v3h-2l-4-5 2-2c-2-2-2-3 0-4l1 1 1 1c1-2 2-2 4-2-1 2-2 4-1 6l3-1c-1-2-2-3-1-4h3v4l6-1v-6l-3-1c2-2 5-3 9-2v3h3l-1-7 6-5h3v-7c2 1 4 1 5-1l-1 11-11 2c-1 2 0 5 1 8l-7 6z" opacity=".998"/><path fill="#b1afb3" d="M200 299l6 2c-1 1 0 2 1 4 2 0 3 1 2 3l-6-1c-2-3-4-4-6-5-3-2-5-4-5-7l-6-3v-5l-9-2h14c0 2 1 5 4 7l2 6 3 1z" opacity=".495"/><path fill="#5d575a" d="M116 296c-3 2-6 4-10 4l2-8 8-1v5z" opacity=".514"/><path fill="#a39da3" d="M80 294c-2 1-2 2 0 4l-2 2 4 5-6 1v-5l-10-2c-3 1-5 3-5 6l-10-5v-1h1l6-3 1-8h4c-1 3 1 6 5 8 2-3 5-4 8-5 2 0 3 1 4 3z"/><path fill="#655f63" d="M100 299l1 2c-5 3-11 4-17 4v-3l16-3z" opacity=".173"/><path fill="#8c858c" d="M76 306l-15-1c0-3 2-5 5-6l10 2v5z" opacity=".576"/><path fill="#817b7f" d="M239 293l4 1v5c2-1 4 0 7 1-7 4-14 6-21 4-5-4-4-5 3-5-2 1-2 2 0 3l8-4a605 605 0 00-1-5z"/><path fill="#c3bfc0" d="M258 304l-4 4-9 2h-21v-1l2-2 19-2 13-1z" opacity=".212"/></svg>