<svg width="40" height="62" fill="none" xmlns="http://www.w3.org/2000/svg"><g opacity=".5" fill="#149080"><path d="M15.162 37.717c-.3.995-.2 2.19 0 3.582.499 2.588 1.696 5.971 2.394 9.654h5.087c.698-3.583 1.895-6.967 2.494-9.654.3-1.393.3-2.687 0-3.582-.3-.896-.898-1.593-1.995-2.29h-5.985c-1.197.697-1.796 1.394-1.995 2.29zm11.771 19.904H13.167c-1.297 0-2.294.995-2.294 2.19V62h18.354v-2.19c0-1.194-.998-2.189-2.294-2.189zM34.015 2.19h-11.67C22.344.994 21.346 0 20.05 0s-2.294.995-2.294 2.19H6.085L0 27.566c.798-.498 1.596-.995 2.594-.995 1.396 0 2.194.796 2.892 1.393.699.597 1.197.796 1.397.796.299 0 .798-.299 1.496-.796.698-.498 1.596-1.393 2.893-1.393 1.297 0 2.194.796 2.893 1.393.698.497 1.197.796 1.496.796.1 0 .3-.1.598-.199.2-.1.5-.398.898-.597.499-.398 1.097-.995 1.995-1.194.3-.1.599-.1.898-.1 1.297 0 2.194.796 2.893 1.393.698.498 1.197.797 1.496.797.3 0 .798-.299 1.396-.797.699-.597 1.596-1.393 2.893-1.393 1.397 0 2.195.796 2.893 1.393.3.299.598.498.898.598.2.1.399.199.598.199.3 0 .798-.299 1.397-.896.698-.597 1.596-1.393 2.892-1.393.998 0 1.796.497 2.594.995L34.015 2.189zM23.442 53.143h-6.883c-.699 0-1.098.497-1.098 1.094 0 .597.5 1.095 1.098 1.095h6.883c.698 0 1.097-.498 1.097-1.095.1-.597-.4-1.094-1.098-1.094z"/><path d="M20.05 28.76c-.1 0-.3.1-.599.199-.2.1-.399.298-.598.398v3.682h2.294v-3.583c-.499-.398-.898-.696-1.097-.696z"/></g></svg>28.8606 24.4389 28.8606C24.7382 28.8606 25.2369 28.562 25.8354 28.0644C26.5337 27.4673 27.4314 26.6712 28.7282 26.6712C30.1247 26.6712 30.9227 27.4673 31.621 28.0644C31.9202 28.363 32.2194 28.562 32.5187 28.6616C32.7182 28.7611 32.9177 28.8606 33.1172 28.8606C33.4165 28.8606 33.9152 28.562 34.5137 27.9649C35.212 27.3678 36.1097 26.5717 37.4065 26.5717C38.404 26.5717 39.202 27.0693 40 27.5668L34.015 2.18943Z" fill="#149080"/>
<path d="M23.4415 53.1426H16.5587C15.8604 53.1426 15.4614 53.6402 15.4614 54.2373C15.4614 54.8344 15.9602 55.332 16.5587 55.332H23.4415C24.1397 55.332 24.5387 54.8344 24.5387 54.2373C24.6385 53.6402 24.1397 53.1426 23.4415 53.1426Z" fill="#149080"/>
<path d="M20.0499 28.7598C19.9501 28.7598 19.7506 28.8593 19.4514 28.9588C19.2519 29.0583 19.0524 29.2574 18.8529 29.3569V33.0391H21.1471V29.4564C20.6484 29.0583 20.2494 28.7598 20.0499 28.7598Z" fill="#149080"/>
</g>
</svg>
